<mxfile host="app.diagrams.net" modified="2022-06-15T14:23:24.215Z" agent="5.0 (Windows)" etag="1-DRFH4gbHHyLe3x2NIs" version="20.0.1" type="github">
  <diagram name="Page-1" id="e3a06f82-3646-2815-327d-82caf3d4e204">
    <mxGraphModel dx="1778" dy="953" grid="1" gridSize="10" guides="1" tooltips="1" connect="1" arrows="1" fold="1" page="1" pageScale="1.5" pageWidth="1169" pageHeight="826" background="none" math="0" shadow="0">
      <root>
        <mxCell id="0" style=";html=1;" />
        <mxCell id="1" style=";html=1;" parent="0" />
        <mxCell id="Hxg2KiOLX2WzjIH6s9GO-10" style="edgeStyle=orthogonalEdgeStyle;rounded=0;orthogonalLoop=1;jettySize=auto;html=1;endArrow=none;endFill=0;" edge="1" parent="1" source="Hxg2KiOLX2WzjIH6s9GO-3" target="Hxg2KiOLX2WzjIH6s9GO-6">
          <mxGeometry relative="1" as="geometry" />
        </mxCell>
        <mxCell id="Hxg2KiOLX2WzjIH6s9GO-3" value="" style="shape=actor;whiteSpace=wrap;html=1;" vertex="1" parent="1">
          <mxGeometry x="430" y="80" width="40" height="60" as="geometry" />
        </mxCell>
        <mxCell id="Hxg2KiOLX2WzjIH6s9GO-11" style="edgeStyle=orthogonalEdgeStyle;rounded=0;orthogonalLoop=1;jettySize=auto;html=1;startArrow=none;startFill=0;endArrow=none;endFill=0;" edge="1" parent="1" source="Hxg2KiOLX2WzjIH6s9GO-4" target="Hxg2KiOLX2WzjIH6s9GO-6">
          <mxGeometry relative="1" as="geometry" />
        </mxCell>
        <mxCell id="Hxg2KiOLX2WzjIH6s9GO-4" value="" style="shape=actor;whiteSpace=wrap;html=1;" vertex="1" parent="1">
          <mxGeometry x="730" y="100" width="40" height="60" as="geometry" />
        </mxCell>
        <mxCell id="Hxg2KiOLX2WzjIH6s9GO-5" value="" style="verticalLabelPosition=bottom;sketch=0;aspect=fixed;html=1;verticalAlign=top;strokeColor=none;align=center;outlineConnect=0;shape=mxgraph.citrix.command_center;" vertex="1" parent="1">
          <mxGeometry x="570" y="290" width="75.5" height="96" as="geometry" />
        </mxCell>
        <mxCell id="Hxg2KiOLX2WzjIH6s9GO-8" style="edgeStyle=orthogonalEdgeStyle;rounded=0;orthogonalLoop=1;jettySize=auto;html=1;endArrow=none;endFill=0;" edge="1" parent="1" source="Hxg2KiOLX2WzjIH6s9GO-6" target="Hxg2KiOLX2WzjIH6s9GO-5">
          <mxGeometry relative="1" as="geometry" />
        </mxCell>
        <mxCell id="Hxg2KiOLX2WzjIH6s9GO-6" value="" style="verticalLabelPosition=bottom;sketch=0;aspect=fixed;html=1;verticalAlign=top;strokeColor=none;align=center;outlineConnect=0;shape=mxgraph.citrix.router;" vertex="1" parent="1">
          <mxGeometry x="580.25" y="180" width="55" height="36.5" as="geometry" />
        </mxCell>
        <mxCell id="Hxg2KiOLX2WzjIH6s9GO-12" value="&lt;div&gt;Подсеть &lt;br&gt;&lt;/div&gt;&lt;div&gt;общего доступа&lt;/div&gt;" style="text;html=1;strokeColor=none;fillColor=none;align=center;verticalAlign=middle;whiteSpace=wrap;rounded=0;" vertex="1" parent="1">
          <mxGeometry x="290" y="95" width="140" height="30" as="geometry" />
        </mxCell>
        <mxCell id="Hxg2KiOLX2WzjIH6s9GO-13" value="Демилитарнизованная зона" style="text;html=1;strokeColor=none;fillColor=none;align=center;verticalAlign=middle;whiteSpace=wrap;rounded=0;" vertex="1" parent="1">
          <mxGeometry x="410" y="230" width="160" height="30" as="geometry" />
        </mxCell>
        <mxCell id="Hxg2KiOLX2WzjIH6s9GO-14" value="Firewall" style="text;html=1;strokeColor=none;fillColor=none;align=center;verticalAlign=middle;whiteSpace=wrap;rounded=0;" vertex="1" parent="1">
          <mxGeometry x="600" y="386" width="60" height="30" as="geometry" />
        </mxCell>
        <mxCell id="Hxg2KiOLX2WzjIH6s9GO-18" style="edgeStyle=none;rounded=0;orthogonalLoop=1;jettySize=auto;html=1;startArrow=none;startFill=0;endArrow=none;endFill=0;endSize=0;strokeColor=default;" edge="1" parent="1" source="Hxg2KiOLX2WzjIH6s9GO-15" target="Hxg2KiOLX2WzjIH6s9GO-5">
          <mxGeometry relative="1" as="geometry" />
        </mxCell>
        <mxCell id="Hxg2KiOLX2WzjIH6s9GO-15" value="" style="verticalLabelPosition=bottom;sketch=0;aspect=fixed;html=1;verticalAlign=top;strokeColor=none;align=center;outlineConnect=0;shape=mxgraph.citrix.router;" vertex="1" parent="1">
          <mxGeometry x="580.25" y="500" width="55" height="36.5" as="geometry" />
        </mxCell>
        <mxCell id="Hxg2KiOLX2WzjIH6s9GO-19" value="" style="verticalLabelPosition=bottom;sketch=0;aspect=fixed;html=1;verticalAlign=top;strokeColor=none;align=center;outlineConnect=0;shape=mxgraph.citrix.license_server;" vertex="1" parent="1">
          <mxGeometry x="584.81" y="650" width="45.88" height="60" as="geometry" />
        </mxCell>
        <mxCell id="Hxg2KiOLX2WzjIH6s9GO-20" value="" style="verticalLabelPosition=bottom;sketch=0;aspect=fixed;html=1;verticalAlign=top;strokeColor=none;align=center;outlineConnect=0;shape=mxgraph.citrix.license_server;" vertex="1" parent="1">
          <mxGeometry x="607.06" y="660" width="45.88" height="60" as="geometry" />
        </mxCell>
        <mxCell id="Hxg2KiOLX2WzjIH6s9GO-25" style="edgeStyle=none;rounded=0;orthogonalLoop=1;jettySize=auto;html=1;startArrow=none;startFill=0;endArrow=none;endFill=0;endSize=0;strokeColor=default;" edge="1" parent="1" source="Hxg2KiOLX2WzjIH6s9GO-23" target="Hxg2KiOLX2WzjIH6s9GO-15">
          <mxGeometry relative="1" as="geometry" />
        </mxCell>
        <mxCell id="Hxg2KiOLX2WzjIH6s9GO-23" value="" style="verticalLabelPosition=bottom;sketch=0;aspect=fixed;html=1;verticalAlign=top;strokeColor=none;align=center;outlineConnect=0;shape=mxgraph.citrix.license_server;" vertex="1" parent="1">
          <mxGeometry x="584.81" y="610" width="45.88" height="60" as="geometry" />
        </mxCell>
        <mxCell id="Hxg2KiOLX2WzjIH6s9GO-24" value="" style="verticalLabelPosition=bottom;sketch=0;aspect=fixed;html=1;verticalAlign=top;strokeColor=none;align=center;outlineConnect=0;shape=mxgraph.citrix.license_server;" vertex="1" parent="1">
          <mxGeometry x="607.06" y="620" width="45.88" height="60" as="geometry" />
        </mxCell>
        <mxCell id="Hxg2KiOLX2WzjIH6s9GO-28" style="edgeStyle=none;rounded=0;orthogonalLoop=1;jettySize=auto;html=1;startArrow=none;startFill=0;endArrow=none;endFill=0;endSize=0;strokeColor=default;" edge="1" parent="1" source="Hxg2KiOLX2WzjIH6s9GO-26" target="Hxg2KiOLX2WzjIH6s9GO-19">
          <mxGeometry relative="1" as="geometry" />
        </mxCell>
        <mxCell id="Hxg2KiOLX2WzjIH6s9GO-26" value="" style="verticalLabelPosition=bottom;sketch=0;aspect=fixed;html=1;verticalAlign=top;strokeColor=none;align=center;outlineConnect=0;shape=mxgraph.citrix.license_server;" vertex="1" parent="1">
          <mxGeometry x="310" y="637.5" width="65" height="85" as="geometry" />
        </mxCell>
        <mxCell id="Hxg2KiOLX2WzjIH6s9GO-27" value="" style="verticalLabelPosition=bottom;sketch=0;aspect=fixed;html=1;verticalAlign=top;strokeColor=none;align=center;outlineConnect=0;shape=mxgraph.citrix.switch;" vertex="1" parent="1">
          <mxGeometry x="343" y="708.0699999999999" width="32" height="14.43" as="geometry" />
        </mxCell>
        <mxCell id="Hxg2KiOLX2WzjIH6s9GO-29" value="" style="verticalLabelPosition=bottom;sketch=0;aspect=fixed;html=1;verticalAlign=top;strokeColor=none;align=center;outlineConnect=0;shape=mxgraph.citrix.database_server;" vertex="1" parent="1">
          <mxGeometry x="430" y="910" width="80" height="90" as="geometry" />
        </mxCell>
        <mxCell id="Hxg2KiOLX2WzjIH6s9GO-33" style="edgeStyle=none;rounded=0;orthogonalLoop=1;jettySize=auto;html=1;startArrow=none;startFill=0;endArrow=none;endFill=0;endSize=0;strokeColor=default;exitX=1;exitY=0.5;exitDx=0;exitDy=0;" edge="1" parent="1" source="Hxg2KiOLX2WzjIH6s9GO-31" target="Hxg2KiOLX2WzjIH6s9GO-20">
          <mxGeometry relative="1" as="geometry">
            <Array as="points">
              <mxPoint x="630" y="905" />
            </Array>
          </mxGeometry>
        </mxCell>
        <mxCell id="Hxg2KiOLX2WzjIH6s9GO-36" value="" style="edgeStyle=none;rounded=0;orthogonalLoop=1;jettySize=auto;html=1;startArrow=none;startFill=0;endArrow=none;endFill=0;endSize=0;strokeColor=default;" edge="1" parent="1" source="Hxg2KiOLX2WzjIH6s9GO-31" target="Hxg2KiOLX2WzjIH6s9GO-29">
          <mxGeometry relative="1" as="geometry">
            <Array as="points">
              <mxPoint x="470" y="905" />
            </Array>
          </mxGeometry>
        </mxCell>
        <mxCell id="Hxg2KiOLX2WzjIH6s9GO-31" value="&lt;div&gt;LAN 1&lt;/div&gt;" style="text;html=1;strokeColor=none;fillColor=none;align=center;verticalAlign=middle;whiteSpace=wrap;rounded=0;" vertex="1" parent="1">
          <mxGeometry x="547.06" y="890" width="60" height="30" as="geometry" />
        </mxCell>
        <mxCell id="Hxg2KiOLX2WzjIH6s9GO-34" style="edgeStyle=none;rounded=0;orthogonalLoop=1;jettySize=auto;html=1;exitX=0.5;exitY=1;exitDx=0;exitDy=0;startArrow=none;startFill=0;endArrow=none;endFill=0;endSize=0;strokeColor=default;" edge="1" parent="1" source="Hxg2KiOLX2WzjIH6s9GO-31" target="Hxg2KiOLX2WzjIH6s9GO-31">
          <mxGeometry relative="1" as="geometry" />
        </mxCell>
        <mxCell id="Hxg2KiOLX2WzjIH6s9GO-39" style="edgeStyle=none;rounded=0;orthogonalLoop=1;jettySize=auto;html=1;startArrow=none;startFill=0;endArrow=none;endFill=0;endSize=0;strokeColor=default;" edge="1" parent="1" source="Hxg2KiOLX2WzjIH6s9GO-37" target="Hxg2KiOLX2WzjIH6s9GO-29">
          <mxGeometry relative="1" as="geometry">
            <mxPoint x="440" y="1010" as="targetPoint" />
          </mxGeometry>
        </mxCell>
        <mxCell id="Hxg2KiOLX2WzjIH6s9GO-45" style="edgeStyle=none;rounded=0;orthogonalLoop=1;jettySize=auto;html=1;startArrow=none;startFill=0;endArrow=none;endFill=0;endSize=0;strokeColor=default;" edge="1" parent="1" source="Hxg2KiOLX2WzjIH6s9GO-37" target="Hxg2KiOLX2WzjIH6s9GO-44">
          <mxGeometry relative="1" as="geometry" />
        </mxCell>
        <mxCell id="Hxg2KiOLX2WzjIH6s9GO-37" value="&lt;div&gt;SAN&lt;/div&gt;" style="text;html=1;strokeColor=none;fillColor=none;align=center;verticalAlign=middle;whiteSpace=wrap;rounded=0;" vertex="1" parent="1">
          <mxGeometry x="560" y="1000" width="30" height="20" as="geometry" />
        </mxCell>
        <mxCell id="Hxg2KiOLX2WzjIH6s9GO-40" style="edgeStyle=none;rounded=0;orthogonalLoop=1;jettySize=auto;html=1;exitX=0;exitY=0;exitDx=0;exitDy=0;startArrow=none;startFill=0;endArrow=none;endFill=0;endSize=0;strokeColor=default;" edge="1" parent="1" source="Hxg2KiOLX2WzjIH6s9GO-37" target="Hxg2KiOLX2WzjIH6s9GO-37">
          <mxGeometry relative="1" as="geometry" />
        </mxCell>
        <mxCell id="Hxg2KiOLX2WzjIH6s9GO-41" style="edgeStyle=none;rounded=0;orthogonalLoop=1;jettySize=auto;html=1;exitX=0;exitY=0.5;exitDx=0;exitDy=0;startArrow=none;startFill=0;endArrow=none;endFill=0;endSize=0;strokeColor=default;" edge="1" parent="1" source="Hxg2KiOLX2WzjIH6s9GO-37" target="Hxg2KiOLX2WzjIH6s9GO-37">
          <mxGeometry relative="1" as="geometry" />
        </mxCell>
        <mxCell id="Hxg2KiOLX2WzjIH6s9GO-42" style="edgeStyle=none;rounded=0;orthogonalLoop=1;jettySize=auto;html=1;exitX=0;exitY=1;exitDx=0;exitDy=0;startArrow=none;startFill=0;endArrow=none;endFill=0;endSize=0;strokeColor=default;" edge="1" parent="1" source="Hxg2KiOLX2WzjIH6s9GO-37" target="Hxg2KiOLX2WzjIH6s9GO-37">
          <mxGeometry relative="1" as="geometry" />
        </mxCell>
        <mxCell id="Hxg2KiOLX2WzjIH6s9GO-48" style="edgeStyle=none;rounded=0;orthogonalLoop=1;jettySize=auto;html=1;startArrow=none;startFill=0;endArrow=none;endFill=0;endSize=0;strokeColor=default;" edge="1" parent="1" source="Hxg2KiOLX2WzjIH6s9GO-44" target="Hxg2KiOLX2WzjIH6s9GO-46">
          <mxGeometry relative="1" as="geometry">
            <mxPoint x="850" y="920" as="targetPoint" />
            <Array as="points">
              <mxPoint x="850" y="1044" />
            </Array>
          </mxGeometry>
        </mxCell>
        <mxCell id="Hxg2KiOLX2WzjIH6s9GO-44" value="" style="verticalLabelPosition=bottom;sketch=0;aspect=fixed;html=1;verticalAlign=top;strokeColor=none;align=center;outlineConnect=0;shape=mxgraph.citrix.hq_enterprise;" vertex="1" parent="1">
          <mxGeometry x="635.25" y="1000" width="92" height="88" as="geometry" />
        </mxCell>
        <mxCell id="Hxg2KiOLX2WzjIH6s9GO-47" style="edgeStyle=none;rounded=0;orthogonalLoop=1;jettySize=auto;html=1;entryX=0.8;entryY=0.142;entryDx=0;entryDy=0;entryPerimeter=0;startArrow=none;startFill=0;endArrow=none;endFill=0;endSize=0;strokeColor=default;" edge="1" parent="1" source="Hxg2KiOLX2WzjIH6s9GO-46" target="Hxg2KiOLX2WzjIH6s9GO-29">
          <mxGeometry relative="1" as="geometry">
            <Array as="points">
              <mxPoint x="700" y="770" />
              <mxPoint x="700" y="923" />
            </Array>
          </mxGeometry>
        </mxCell>
        <mxCell id="Hxg2KiOLX2WzjIH6s9GO-50" style="edgeStyle=none;rounded=0;orthogonalLoop=1;jettySize=auto;html=1;startArrow=none;startFill=0;endArrow=none;endFill=0;endSize=0;strokeColor=default;exitX=0.922;exitY=0.503;exitDx=0;exitDy=0;exitPerimeter=0;" edge="1" parent="1" source="Hxg2KiOLX2WzjIH6s9GO-46" target="Hxg2KiOLX2WzjIH6s9GO-49">
          <mxGeometry relative="1" as="geometry">
            <Array as="points">
              <mxPoint x="928" y="771" />
            </Array>
          </mxGeometry>
        </mxCell>
        <mxCell id="Hxg2KiOLX2WzjIH6s9GO-46" value="" style="verticalLabelPosition=bottom;sketch=0;aspect=fixed;html=1;verticalAlign=top;strokeColor=none;align=center;outlineConnect=0;shape=mxgraph.citrix.command_center;" vertex="1" parent="1">
          <mxGeometry x="810" y="722.5" width="75.5" height="96" as="geometry" />
        </mxCell>
        <mxCell id="Hxg2KiOLX2WzjIH6s9GO-52" style="edgeStyle=none;rounded=0;orthogonalLoop=1;jettySize=auto;html=1;startArrow=none;startFill=0;endArrow=none;endFill=0;endSize=0;strokeColor=default;" edge="1" parent="1" source="Hxg2KiOLX2WzjIH6s9GO-49">
          <mxGeometry relative="1" as="geometry">
            <mxPoint x="1140" y="520" as="targetPoint" />
            <Array as="points">
              <mxPoint x="1140" y="600" />
            </Array>
          </mxGeometry>
        </mxCell>
        <mxCell id="Hxg2KiOLX2WzjIH6s9GO-49" value="" style="verticalLabelPosition=bottom;sketch=0;aspect=fixed;html=1;verticalAlign=top;strokeColor=none;align=center;outlineConnect=0;shape=mxgraph.citrix.router;" vertex="1" parent="1">
          <mxGeometry x="900" y="583" width="55" height="36.5" as="geometry" />
        </mxCell>
        <mxCell id="Hxg2KiOLX2WzjIH6s9GO-51" value="" style="verticalLabelPosition=bottom;sketch=0;aspect=fixed;html=1;verticalAlign=top;strokeColor=none;align=center;outlineConnect=0;shape=mxgraph.citrix.cache_server;" vertex="1" parent="1">
          <mxGeometry x="1070" y="416" width="71" height="97.5" as="geometry" />
        </mxCell>
        <mxCell id="Hxg2KiOLX2WzjIH6s9GO-55" style="edgeStyle=none;rounded=0;orthogonalLoop=1;jettySize=auto;html=1;startArrow=none;startFill=0;endArrow=none;endFill=0;endSize=0;strokeColor=default;" edge="1" parent="1" source="Hxg2KiOLX2WzjIH6s9GO-53">
          <mxGeometry relative="1" as="geometry">
            <mxPoint x="1140" y="600" as="targetPoint" />
          </mxGeometry>
        </mxCell>
        <mxCell id="Hxg2KiOLX2WzjIH6s9GO-57" style="edgeStyle=none;rounded=0;orthogonalLoop=1;jettySize=auto;html=1;startArrow=none;startFill=0;endArrow=none;endFill=0;endSize=0;strokeColor=default;" edge="1" parent="1" source="Hxg2KiOLX2WzjIH6s9GO-53">
          <mxGeometry relative="1" as="geometry">
            <mxPoint x="1400" y="520" as="targetPoint" />
            <Array as="points">
              <mxPoint x="1400" y="600" />
            </Array>
          </mxGeometry>
        </mxCell>
        <mxCell id="Hxg2KiOLX2WzjIH6s9GO-53" value="&lt;div&gt;LAN N&lt;/div&gt;" style="text;html=1;strokeColor=none;fillColor=none;align=center;verticalAlign=middle;whiteSpace=wrap;rounded=0;" vertex="1" parent="1">
          <mxGeometry x="1180" y="586.25" width="60" height="30" as="geometry" />
        </mxCell>
        <mxCell id="Hxg2KiOLX2WzjIH6s9GO-56" value="" style="verticalLabelPosition=bottom;sketch=0;aspect=fixed;html=1;verticalAlign=top;strokeColor=none;align=center;outlineConnect=0;shape=mxgraph.citrix.smtp_server;" vertex="1" parent="1">
          <mxGeometry x="1360" y="421.5" width="76" height="92" as="geometry" />
        </mxCell>
        <mxCell id="Hxg2KiOLX2WzjIH6s9GO-58" value="Выделенная подсеть" style="text;html=1;strokeColor=none;fillColor=none;align=center;verticalAlign=middle;whiteSpace=wrap;rounded=0;" vertex="1" parent="1">
          <mxGeometry x="680" y="665" width="60" height="30" as="geometry" />
        </mxCell>
        <mxCell id="Hxg2KiOLX2WzjIH6s9GO-59" value="AD server" style="text;html=1;strokeColor=none;fillColor=none;align=center;verticalAlign=middle;whiteSpace=wrap;rounded=0;" vertex="1" parent="1">
          <mxGeometry x="315" y="730" width="60" height="30" as="geometry" />
        </mxCell>
        <mxCell id="Hxg2KiOLX2WzjIH6s9GO-60" value="Application server" style="text;html=1;strokeColor=none;fillColor=none;align=center;verticalAlign=middle;whiteSpace=wrap;rounded=0;" vertex="1" parent="1">
          <mxGeometry x="635.25" y="722.5" width="60" height="30" as="geometry" />
        </mxCell>
        <mxCell id="Hxg2KiOLX2WzjIH6s9GO-61" value="&lt;p style=&quot;font-size: 14px;&quot;&gt;&lt;font style=&quot;font-size: 14px;&quot; face=&quot;Times New Roman&quot;&gt;DB server&lt;/font&gt;&lt;br style=&quot;font-size: 14px;&quot;&gt;&lt;/p&gt;" style="text;html=1;strokeColor=none;fillColor=none;align=center;verticalAlign=middle;whiteSpace=wrap;rounded=0;fontSize=14;" vertex="1" parent="1">
          <mxGeometry x="440" y="1010" width="60" height="30" as="geometry" />
        </mxCell>
        <mxCell id="Hxg2KiOLX2WzjIH6s9GO-62" value="Дисковой массив" style="text;html=1;strokeColor=none;fillColor=none;align=center;verticalAlign=middle;whiteSpace=wrap;rounded=0;fontFamily=Times New Roman;fontSize=14;" vertex="1" parent="1">
          <mxGeometry x="730" y="1050" width="60" height="30" as="geometry" />
        </mxCell>
        <mxCell id="Hxg2KiOLX2WzjIH6s9GO-63" value="ETL Server" style="text;html=1;strokeColor=none;fillColor=none;align=center;verticalAlign=middle;whiteSpace=wrap;rounded=0;fontFamily=Times New Roman;fontSize=14;" vertex="1" parent="1">
          <mxGeometry x="885.5" y="788.5" width="80" height="30" as="geometry" />
        </mxCell>
        <mxCell id="Hxg2KiOLX2WzjIH6s9GO-64" value="Источник 1" style="text;html=1;strokeColor=none;fillColor=none;align=center;verticalAlign=middle;whiteSpace=wrap;rounded=0;fontFamily=Times New Roman;fontSize=14;" vertex="1" parent="1">
          <mxGeometry x="1100" y="536.5" width="80" height="30" as="geometry" />
        </mxCell>
        <mxCell id="Hxg2KiOLX2WzjIH6s9GO-65" value="Источник 2" style="text;html=1;strokeColor=none;fillColor=none;align=center;verticalAlign=middle;whiteSpace=wrap;rounded=0;fontFamily=Times New Roman;fontSize=14;" vertex="1" parent="1">
          <mxGeometry x="1360" y="530" width="80" height="30" as="geometry" />
        </mxCell>
        <mxCell id="Hxg2KiOLX2WzjIH6s9GO-66" value="&lt;div&gt;Другие подсети&lt;/div&gt;" style="text;html=1;strokeColor=none;fillColor=none;align=center;verticalAlign=middle;whiteSpace=wrap;rounded=0;fontFamily=Times New Roman;fontSize=14;" vertex="1" parent="1">
          <mxGeometry x="950" y="380" width="60" height="30" as="geometry" />
        </mxCell>
        <mxCell id="Hxg2KiOLX2WzjIH6s9GO-71" value="" style="curved=1;endArrow=classic;html=1;rounded=0;fontFamily=Times New Roman;fontSize=14;endSize=0;strokeColor=default;" edge="1" parent="1">
          <mxGeometry width="50" height="50" relative="1" as="geometry">
            <mxPoint x="1040" y="220" as="sourcePoint" />
            <mxPoint x="1040" y="220" as="targetPoint" />
            <Array as="points">
              <mxPoint x="980" y="260" />
              <mxPoint x="720" y="260" />
              <mxPoint x="550" y="200" />
              <mxPoint x="320" y="260" />
              <mxPoint x="260" y="10" />
              <mxPoint x="870" y="10" />
              <mxPoint x="890" y="150" />
            </Array>
          </mxGeometry>
        </mxCell>
        <mxCell id="Hxg2KiOLX2WzjIH6s9GO-72" value="" style="curved=1;endArrow=none;html=1;rounded=0;fontFamily=Times New Roman;fontSize=14;endSize=0;strokeColor=default;endFill=0;" edge="1" parent="1">
          <mxGeometry width="50" height="50" relative="1" as="geometry">
            <mxPoint x="750" y="310" as="sourcePoint" />
            <mxPoint x="750" y="310" as="targetPoint" />
            <Array as="points">
              <mxPoint x="690" y="436.5" />
              <mxPoint x="480" y="400" />
              <mxPoint x="370" y="216.5" />
              <mxPoint x="610" y="226.5" />
              <mxPoint x="730" y="250" />
            </Array>
          </mxGeometry>
        </mxCell>
        <mxCell id="Hxg2KiOLX2WzjIH6s9GO-73" value="" style="curved=1;endArrow=classic;html=1;rounded=0;fontFamily=Times New Roman;fontSize=14;endSize=0;strokeColor=default;" edge="1" parent="1">
          <mxGeometry width="50" height="50" relative="1" as="geometry">
            <mxPoint x="270" y="690" as="sourcePoint" />
            <mxPoint x="270" y="690" as="targetPoint" />
            <Array as="points">
              <mxPoint x="330" y="530" />
              <mxPoint x="600" y="550" />
              <mxPoint x="860" y="620" />
              <mxPoint x="1100" y="750" />
              <mxPoint x="800" y="1330" />
              <mxPoint x="280" y="970" />
            </Array>
          </mxGeometry>
        </mxCell>
        <mxCell id="Hxg2KiOLX2WzjIH6s9GO-74" value="" style="curved=1;endArrow=classic;html=1;rounded=0;fontFamily=Times New Roman;fontSize=14;endSize=0;strokeColor=default;dashed=1;" edge="1" parent="1">
          <mxGeometry width="50" height="50" relative="1" as="geometry">
            <mxPoint x="1500" y="400" as="sourcePoint" />
            <mxPoint x="1500" y="400" as="targetPoint" />
            <Array as="points">
              <mxPoint x="1470" y="630" />
              <mxPoint x="1230" y="670" />
              <mxPoint x="1130" y="620" />
              <mxPoint x="1090" y="620" />
              <mxPoint x="1020" y="620" />
              <mxPoint x="760" y="240" />
            </Array>
          </mxGeometry>
        </mxCell>
      </root>
    </mxGraphModel>
  </diagram>
</mxfile>
